<mxfile host="app.diagrams.net" agent="Mozilla/5.0 (X11; Ubuntu; Linux x86_64; rv:133.0) Gecko/20100101 Firefox/133.0" version="26.0.3">
  <diagram name="Page-1" id="KJV3jukr7DV-UPkIfERI">
    <mxGraphModel dx="1434" dy="785" grid="1" gridSize="10" guides="1" tooltips="1" connect="1" arrows="1" fold="1" page="1" pageScale="1" pageWidth="850" pageHeight="1100" math="0" shadow="0">
      <root>
        <mxCell id="0" />
        <mxCell id="1" parent="0" />
        <mxCell id="0h4nhvKieRtqN7D3RAEF-3" style="edgeStyle=orthogonalEdgeStyle;rounded=0;orthogonalLoop=1;jettySize=auto;html=1;exitX=1;exitY=0.5;exitDx=0;exitDy=0;entryX=0;entryY=0.5;entryDx=0;entryDy=0;" edge="1" parent="1" source="0h4nhvKieRtqN7D3RAEF-1" target="0h4nhvKieRtqN7D3RAEF-2">
          <mxGeometry relative="1" as="geometry" />
        </mxCell>
        <mxCell id="0h4nhvKieRtqN7D3RAEF-1" value="msg key" style="rounded=0;whiteSpace=wrap;html=1;fillColor=#f8cecc;strokeColor=#b85450;" vertex="1" parent="1">
          <mxGeometry x="80" y="280" width="120" height="80" as="geometry" />
        </mxCell>
        <mxCell id="0h4nhvKieRtqN7D3RAEF-5" style="edgeStyle=orthogonalEdgeStyle;rounded=0;orthogonalLoop=1;jettySize=auto;html=1;exitX=1;exitY=0.5;exitDx=0;exitDy=0;entryX=0;entryY=0.5;entryDx=0;entryDy=0;" edge="1" parent="1" source="0h4nhvKieRtqN7D3RAEF-2" target="0h4nhvKieRtqN7D3RAEF-4">
          <mxGeometry relative="1" as="geometry" />
        </mxCell>
        <mxCell id="0h4nhvKieRtqN7D3RAEF-2" value="" style="rounded=0;whiteSpace=wrap;html=1;fillColor=#f8cecc;strokeColor=#b85450;" vertex="1" parent="1">
          <mxGeometry x="360" y="200" width="120" height="240" as="geometry" />
        </mxCell>
        <mxCell id="0h4nhvKieRtqN7D3RAEF-4" value="" style="rounded=0;whiteSpace=wrap;html=1;fillColor=#dae8fc;strokeColor=#6c8ebf;" vertex="1" parent="1">
          <mxGeometry x="600" y="200" width="120" height="240" as="geometry" />
        </mxCell>
        <mxCell id="0h4nhvKieRtqN7D3RAEF-6" value="preprocessing" style="text;html=1;align=center;verticalAlign=middle;resizable=0;points=[];autosize=1;strokeColor=none;fillColor=none;" vertex="1" parent="1">
          <mxGeometry x="220" y="290" width="100" height="30" as="geometry" />
        </mxCell>
        <mxCell id="0h4nhvKieRtqN7D3RAEF-7" value="RSA" style="text;html=1;align=center;verticalAlign=middle;resizable=0;points=[];autosize=1;strokeColor=none;fillColor=none;" vertex="1" parent="1">
          <mxGeometry x="515" y="290" width="50" height="30" as="geometry" />
        </mxCell>
        <mxCell id="0h4nhvKieRtqN7D3RAEF-9" value="" style="edgeStyle=orthogonalEdgeStyle;rounded=0;orthogonalLoop=1;jettySize=auto;html=1;dashed=1;" edge="1" parent="1" source="0h4nhvKieRtqN7D3RAEF-8" target="0h4nhvKieRtqN7D3RAEF-1">
          <mxGeometry relative="1" as="geometry" />
        </mxCell>
        <mxCell id="0h4nhvKieRtqN7D3RAEF-8" value="symmetric encryption key" style="text;html=1;align=center;verticalAlign=middle;whiteSpace=wrap;rounded=0;fillColor=#ffe6cc;strokeColor=#d79b00;" vertex="1" parent="1">
          <mxGeometry x="70" y="440" width="140" height="30" as="geometry" />
        </mxCell>
      </root>
    </mxGraphModel>
  </diagram>
</mxfile>
